<svg preserveAspectRatio="none" width="100%" height="100%" overflow="visible" style="display: block;" viewBox="0 0 89.6504 21.9649" fill="none" xmlns="http://www.w3.org/2000/svg">
<g id="Frame 6480">
<path id="Union" d="M9.88677 0.532227C11.8448 0.532227 13.5927 0.971103 15.0772 1.83301H15.0801C16.5672 2.69759 17.7432 3.95586 18.5733 5.57324C19.398 7.1828 19.8184 9.08546 19.8184 11.2324C19.8184 13.3794 19.4057 15.282 18.5889 16.8916C17.7695 18.5089 16.6043 19.7722 15.128 20.6475C13.6542 21.52 11.9038 21.9648 9.92193 21.9648H2.81548C2.16899 21.9648 1.63145 21.7492 1.22173 21.3262C0.812135 20.9059 0.604614 20.3554 0.604547 19.6904V2.80664C0.604586 2.16568 0.811954 1.62037 1.2188 1.18945C1.62841 0.753248 2.15533 0.532338 2.78033 0.532227H9.88677ZM32.9288 0.0615234C36.0468 0.0615234 38.886 1.16784 40.9239 3.17383C42.9484 5.16909 44.0973 7.96802 44.1612 11.0566L44.167 11.3174H44.1397C43.9987 14.2811 42.8499 16.961 40.8838 18.8818C38.8513 20.8718 36.0389 21.9648 32.921 21.9648C29.8029 21.9648 26.9637 20.8585 24.9258 18.8525C22.9012 16.8599 21.7524 14.0605 21.6885 10.9717L21.6827 10.7109H21.71C21.8511 7.7446 22.9998 5.06534 24.9659 3.14453C26.9985 1.15454 29.8107 0.0615395 32.9288 0.0615234ZM69.0176 0.444336C70.3053 0.444336 71.2393 1.42112 71.2393 2.76465V19.5566C71.2393 20.9002 70.3266 21.877 69.0176 21.877C67.7089 21.8767 66.7969 20.924 66.7969 19.5566V2.76465C66.7969 1.39998 67.7089 0.44455 69.0176 0.444336ZM81.6104 0C84.6645 8.38686e-05 87.2081 1.35697 88.376 2.70312C89.3415 3.76451 89.3281 4.74103 88.336 5.77051C87.3331 6.77342 86.3299 6.81884 85.3536 5.90918C85.3137 5.8746 85.2659 5.82349 85.1915 5.74902C84.7046 5.25685 83.5683 4.10257 81.5118 4.10254C79.7214 4.10254 78.468 4.95102 78.4678 6.16406C78.4678 7.53952 80.0193 8.05554 82.9883 8.92285C84.3292 9.29797 85.8776 9.79561 87.1758 10.6416L87.3331 10.7432C87.3542 10.7564 87.3754 10.77 87.3965 10.7832L88.0108 11.209H87.9336L87.9766 11.2461L87.9737 11.248C89.1016 12.2589 89.6504 13.5628 89.6504 15.2334C89.6504 19.1335 86.6013 21.8583 82.2383 21.8584C79.1842 21.8584 76.6407 20.5014 75.4727 19.1553C74.507 18.0937 74.5204 17.1175 75.5128 16.0879C76.0393 15.5614 76.5657 15.298 77.087 15.2979C77.5605 15.2979 78.0315 15.5136 78.4971 15.9473C78.537 15.9845 78.5929 16.0374 78.6592 16.1064C79.1461 16.5986 80.2852 17.7529 82.3389 17.7529C84.1294 17.7529 85.3829 16.9046 85.3829 15.6914C85.3829 14.3186 83.8314 13.7999 80.8624 12.9326C79.5215 12.5575 77.9758 12.0599 76.6749 11.2139L76.5176 11.1123C76.4966 11.0991 76.4752 11.0864 76.4542 11.0732L75.8399 10.6475H75.917L75.8741 10.6104C74.7461 9.59946 74.1984 8.29557 74.1983 6.625C74.1983 2.72476 77.2473 0 81.6104 0ZM60.0069 1.1123C60.7704 0.22105 62.1147 0.114377 63.0059 0.87793H63.0001C63.8912 1.64142 63.9978 2.98472 63.2344 3.87598L56.9102 11.2754L62.9336 18.3203C63.6971 19.2142 63.5931 20.5549 62.6993 21.3184C62.2976 21.6614 61.8078 21.8291 61.3184 21.8291C60.7173 21.829 60.1215 21.576 59.7012 21.084L54.1143 14.5498L48.5274 21.084C48.1071 21.5761 47.5113 21.829 46.9102 21.8291C46.4208 21.8291 45.931 21.6614 45.5294 21.3184C44.6382 20.5549 44.5316 19.2116 45.295 18.3203L51.3184 11.2754L44.9942 3.87598C44.2309 2.98206 44.3347 1.64142 45.2286 0.87793C46.1225 0.114488 47.4631 0.22109 48.2266 1.1123L54.1172 8L60.0069 1.1123ZM4.99127 17.8359H9.98248C11.2249 17.8359 12.2652 17.5484 13.0713 16.9844C13.8828 16.4177 14.4864 15.6458 14.8721 14.6934V14.6963C15.2632 13.7253 15.4629 12.5416 15.4629 11.2354C15.4629 9.92922 15.2581 8.77195 14.8565 7.79297C14.4628 6.82988 13.8508 6.05799 13.042 5.50195C12.2333 4.94861 11.2063 4.66602 9.98248 4.66602H4.99127V17.8359ZM32.9258 4.30762C29.0232 4.30777 26.3203 7.02373 26.2032 11.0674V11.1104C26.3842 15.0637 29.0126 17.7157 32.918 17.7158C36.8235 17.7158 39.5245 14.9999 39.6417 10.9561V10.9131C39.4607 6.95976 36.8287 4.30762 32.9258 4.30762Z" fill="var(--fill-0, white)"/>
</g>
</svg>
