<svg width="20" height="20" viewBox="0 0 20 20" fill="none" xmlns="http://www.w3.org/2000/svg">
<path d="M7.79642 17.4993C8.38403 18.018 9.15591 18.3327 10.0013 18.3327C10.8466 18.3327 11.6185 18.018 12.2061 17.4993M15.0013 6.66602C15.0013 5.33993 14.4745 4.06816 13.5368 3.13048C12.5991 2.1928 11.3274 1.66602 10.0013 1.66602C8.6752 1.66602 7.40343 2.1928 6.46574 3.13048C5.52806 4.06816 5.00128 5.33993 5.00128 6.66602C5.00128 9.24117 4.35167 11.0043 3.626 12.1705C3.01388 13.1542 2.70783 13.6461 2.71905 13.7833C2.73147 13.9352 2.76366 13.9932 2.88609 14.084C2.99666 14.166 3.4951 14.166 4.49199 14.166H15.5106C16.5075 14.166 17.0059 14.166 17.1165 14.084C17.2389 13.9932 17.2711 13.9352 17.2835 13.7833C17.2947 13.6461 16.9887 13.1542 16.3766 12.1705C15.6509 11.0043 15.0013 9.24117 15.0013 6.66602Z" stroke="white" stroke-width="1.66667" stroke-linecap="round" stroke-linejoin="round"/>
</svg>
